# xmcd CD database file
# Copyright (C) 1997 Ti Kan
# 
# Track frame offsets:
#     182
#     13285
#     27082
#     40752
#     51237
#     62687
#     75882
#     90890
#     101952
#     115812
#     128647
#     141617
#     154555
#     167732
#     180742
#     191005
#     204140
#     217470
#     231137
#     244515
# 
# Disc length: 3430 seconds
# 
# Revision: 1
# Processed by: cddbd v1.4b41PL1 Copyright (c) Steve Scherf et al.
# Submitted via: DiscPlay 4.0.3
# 
DISCID=0c0d6414
DTITLE=Josephine Baker - Bravo A Josephine Baker
DYEAR=1900
DGENRE=
TTITLE0=Who?
TTITLE1=That Certain Feeling
TTITLE2=Dinah
TTITLE3=I Love My Baby
TTITLE4=Always
TTITLE5=I Wonder Where My Baby Is Tonight
TTITLE6=Bam Bam Bamy Shore
TTITLE7=I Want To Yodel
TTITLE8=Pretty Little Baby
TTITLE9=Where'd You Get Those Eyes?
TTITLE10=Then I'll Be Happy
TTITLE11=After I Say I'm Sorry
TTITLE12=Bye Bye Blackbird
TTITLE13=I'm Leaving For Albany
TTITLE14=I Love Dancing
TTITLE15=Lonesome Love Sick Blues
TTITLE16=Breezin' Along With The Breeze
TTITLE17=Hello Bluebird
TTITLE18=Blue Skies
TTITLE19=He's The Last Word
EXTD=
EXTT0=
EXTT1=
EXTT2=
EXTT3=
EXTT4=
EXTT5=
EXTT6=
EXTT7=
EXTT8=
EXTT9=
EXTT10=
EXTT11=
EXTT12=
EXTT13=
EXTT14=
EXTT15=
EXTT16=
EXTT17=
EXTT18=
EXTT19=
PLAYORDER=
